# WaveFront *.obj file (generated by CINEMA 4D)

v 4.85154962539673 48.56186676025391 4.15013456344604
v 4.85154962539673 48.56186676025391 29.1096019744873
v 5.62673568725586 48.56186676025391 4.23953247070312
v 6.35020637512207 48.56186676025391 4.50324392318726
v 6.97536039352417 48.56186676025391 4.92804431915283
v 7.46507692337036 48.56186676025391 5.49263381958008
v 7.79472303390503 48.56186676025391 6.16870021820068
v 7.95342445373535 48.56186676025391 6.92234373092651
v 7.94351291656494 48.56186676025391 7.71577262878418
v 6.92452239990234 48.56186676025391 16.62986946105957
v 5.88455057144165 48.56186676025391 25.54396438598633
v 5.76741456985474 48.56186676025391 26.33739280700684
v 5.61771011352539 48.56186676025391 27.09103775024414
v 5.45384740829468 48.56186676025391 27.76710319519043
v 5.29015064239502 48.56186676025391 28.33169174194336
v 5.13490390777588 48.56186676025391 28.75649261474609
v 4.98990345001221 48.56186676025391 29.02020454406738
v 5.33487033843994 49.16793060302734 4.23953247070312
v 5.7859468460083 49.73356246948242 4.50324392318726
v 6.17572402954102 50.22232818603516 4.92804431915283
v 6.48105716705322 50.60520172119141 5.49263381958008
v 6.68658828735352 50.86293029785156 6.16870021820068
v 6.78553676605225 50.98700714111328 6.92234373092651
v 6.77935743331909 50.9792594909668 7.71577262878418
v 6.14402723312378 50.18257904052734 16.62986946105957
v 5.49561548233032 49.36949920654297 25.54396438598633
v 5.42258214950562 49.27791595458984 26.33739280700684
v 5.32924270629883 49.16087341308594 27.09103775024414
v 5.22707605361938 49.03276062011719 27.76710319519043
v 5.12501287460327 48.90477752685547 28.33169174194336
v 5.02821826934814 48.78340148925781 28.75649261474609
v 4.93781185150146 48.6700325012207 29.02020454406738
v 4.67905473709106 49.3176155090332 4.23953247070312
v 4.51806688308716 50.02294540405273 4.50324392318726
v 4.37895727157593 50.63242721557617 4.92804431915283
v 4.26998519897461 51.10986709594727 5.49263381958008
v 4.19663190841675 51.43124771118164 6.16870021820068
v 4.16131734848022 51.58596801757812 6.92234373092651
v 4.16352319717407 51.5763053894043 7.71577262878418
v 4.39026975631714 50.58286285400391 16.62986946105957
v 4.62168502807617 49.56896591186523 25.54396438598633
v 4.64775037765503 49.45476531982422 26.33739280700684
v 4.68106269836426 49.30881500244141 27.09103775024414
v 4.71752595901489 49.14906311035156 27.76710319519043
v 4.75395154953003 48.98946762084961 28.33169174194336
v 4.78849744796753 48.83811569213867 28.75649261474609
v 4.8207631111145 48.69675064086914 29.02020454406738
v 4.15313100814819 48.8982048034668 4.23953247070312
v 3.5013062953949 49.21210861206055 4.50324392318726
v 2.93806195259094 49.48335266113281 4.92804431915283
v 2.49684286117554 49.69583129882812 5.49263381958008
v 2.19984197616577 49.83885955810547 6.16870021820068
v 2.05685687065125 49.90771865844727 6.92234373092651
v 2.06578683853149 49.90341567993164 7.71577262878418
v 2.98386549949646 49.4612922668457 16.62986946105957
v 3.92084765434265 49.01006698608398 25.54396438598633
v 4.02638387680054 48.95924377441406 26.33739280700684
v 4.16126298904419 48.89429092407227 27.09103775024414
v 4.30889797210693 48.82319259643555 27.76710319519043
v 4.45638370513916 48.75216674804688 28.33169174194336
v 4.59625625610352 48.68480682373047 28.75649261474609
v 4.72689723968506 48.62189483642578 29.02020454406738
v 4.15313100814819 48.22552490234375 4.23953247070312
v 3.5013062953949 47.91162109375 4.50324392318726
v 2.93806195259094 47.64037704467773 4.92804431915283
v 2.49684286117554 47.42789840698242 5.49263381958008
v 2.19984197616577 47.28487014770508 6.16870021820068
v 2.05685687065125 47.21601104736328 6.92234373092651
v 2.06578683853149 47.22031402587891 7.71577262878418
v 2.98386549949646 47.66243743896484 16.62986946105957
v 3.92084765434265 48.11366271972656 25.54396438598633
v 4.02638387680054 48.16448593139648 26.33739280700684
v 4.16126298904419 48.22943878173828 27.09103775024414
v 4.30889797210693 48.300537109375 27.76710319519043
v 4.45638370513916 48.37156295776367 28.33169174194336
v 4.59625625610352 48.43892288208008 28.75649261474609
v 4.72689723968506 48.50183486938477 29.02020454406738
v 4.67905473709106 47.80611419677734 4.23953247070312
v 4.51806688308716 47.10078430175781 4.50324392318726
v 4.37895727157593 46.49130249023438 4.92804431915283
v 4.26998519897461 46.01386260986328 5.49263381958008
v 4.19663190841675 45.69248199462891 6.16870021820068
v 4.16131734848022 45.53776168823242 6.92234373092651
v 4.16352319717407 45.54742431640625 7.71577262878418
v 4.39026975631714 46.54086685180664 16.62986946105957
v 4.62168502807617 47.55476379394531 25.54396438598633
v 4.64775037765503 47.66896438598633 26.33739280700684
v 4.68106269836426 47.81491470336914 27.09103775024414
v 4.71752595901489 47.97466659545898 27.76710319519043
v 4.75395154953003 48.13426208496094 28.33169174194336
v 4.78849744796753 48.28561401367188 28.75649261474609
v 4.8207631111145 48.42697906494141 29.02020454406738
v 5.33487033843994 47.9557991027832 4.23953247070312
v 5.7859468460083 47.39016723632812 4.50324392318726
v 6.17572402954102 46.90140151977539 4.92804431915283
v 6.48105716705322 46.51852798461914 5.49263381958008
v 6.68658828735352 46.26079940795898 6.16870021820068
v 6.78553676605225 46.13672256469727 6.92234373092651
v 6.77935743331909 46.14447021484375 7.71577262878418
v 6.14402723312378 46.9411506652832 16.62986946105957
v 5.49561548233032 47.75423049926758 25.54396438598633
v 5.42258214950562 47.8458137512207 26.33739280700684
v 5.32924270629883 47.96285629272461 27.09103775024414
v 5.22707605361938 48.09096908569336 27.76710319519043
v 5.12501287460327 48.21895217895508 28.33169174194336
v 5.02821826934814 48.34032821655273 28.75649261474609
v 4.93781185150146 48.45369720458984 29.02020454406738
# 107 vertices

vn -0.00000006813885 0.00000020280694 -1
vn 0.22941623628139 0.0000002532029 -0.97332841157913
vn 0.14303855597973 0.17936514317989 -0.97332835197449
vn 0 0 0
vn 0.45451691746712 0.00000033078848 -0.89073812961578
vn 0.28338620066643 0.35535567998886 -0.89073824882507
vn 0.66300231218338 0.00000033131033 -0.74861735105515
vn 0.41337487101555 0.51835590600967 -0.74861764907837
vn 0.8333568572998 0.00000033173208 -0.55273532867432
vn 0.51958954334259 0.6515446305275 -0.55273526906967
vn 0.86053860187531 0.41441404819489 -0.29619973897934
vn 0.89747279882431 0.43220055103302 -0.08800712972879
vn 0.89950847625732 0.43318086862564 0.05691113322973
vn 0.8961306810379 0.43155413866043 0.10349323600531
vn 0.8946521282196 0.43084225058556 0.11820544302464
vn 0.8902136683464 0.42870539426804 0.15404959022999
vn 0.88370966911316 0.42557367682457 0.19479297101498
vn 0.87615042924881 0.42193338274956 0.23309370875359
vn 0.8641671538353 0.41616228222847 0.28288525342941
vn 0.83364790678024 0.40146753191948 0.3792821764946
vn 0.72751849889755 0.00000464582672 0.68608802556992
vn 0.45360353589058 0.56879860162735 0.68608456850052
vn 0.00000399225655 0.00000471526391 1
vn -0.05105002224445 0.22366455197334 -0.97332835197449
vn -0.10113956779242 0.44312110543251 -0.89073812961578
vn -0.14753185212612 0.64637911319733 -0.74861764907837
vn -0.18543925881386 0.81246280670166 -0.55273538827896
vn 0.21253603696823 0.93117916584015 -0.29619893431664
vn 0.22165754437447 0.97114509344101 -0.08800669759512
vn 0.22216008603573 0.97334784269333 0.05691085010767
vn 0.22132536768913 0.9696928858757 0.10349317640066
vn 0.2209594398737 0.96809309720993 0.11820619553328
vn 0.2198631465435 0.96329063177109 0.15404996275902
vn 0.21825775504112 0.95625299215317 0.19479170441628
vn 0.21639050543308 0.94807296991348 0.23309384286404
vn 0.21342912316322 0.9351065158844 0.28288489580154
vn 0.20589654147625 0.90208119153976 0.37928366661072
vn -0.16188429296017 0.70927953720093 0.68608742952347
vn -0.20669683814049 0.09954000264406 -0.97332841157913
vn -0.40950530767441 0.19720751047134 -0.89073824882507
vn -0.59734416007996 0.28766587376595 -0.74861758947372
vn -0.75082868337631 0.36157983541489 -0.55273526906967
vn -0.59551155567169 0.7467474937439 -0.29619953036308
vn -0.62107050418854 0.77879798412323 -0.08800629526377
vn -0.62247931957245 0.78056424856186 0.05691200122237
vn -0.62014186382294 0.77763307094574 0.10349319130182
vn -0.61911827325821 0.77635043859482 0.11820542812347
vn -0.6160461306572 0.77249985933304 0.15404918789864
vn -0.61154538393021 0.76685613393784 0.19479215145111
vn -0.60631436109543 0.76029586791992 0.23309446871281
vn -0.59802240133286 0.74989658594131 0.28288581967354
vn -0.57690531015396 0.72341310977936 0.37928062677383
vn -0.65547347068787 0.31565868854523 0.68608605861664
vn -0.20669682323933 -0.09953996539116 -0.97332841157913
vn -0.40950530767441 -0.19720754027367 -0.89073824882507
vn -0.59734410047531 -0.28766578435898 -0.74861764907837
vn -0.75082868337631 -0.36157986521721 -0.55273532867432
vn -0.95512598752975 0 -0.29619982838631
vn -0.99611985683441 0 -0.08800709992647
vn -0.99837923049927 0 0.05691140517592
vn -0.99463015794754 0 0.10349323600531
vn -0.99298918247223 0 0.11820527166128
vn -0.98806309700012 0 0.1540495455265
vn -0.98084437847137 0 0.1947930008173
vn -0.9724543094635 0 0.23309369385242
vn -0.95915365219116 0 0.28288561105728
vn -0.92528104782104 0 0.37928214669228
vn -0.65547227859497 -0.31565698981285 0.68608802556992
vn -0.05105003714561 -0.22366432845592 -0.97332841157913
vn -0.10113959014416 -0.44312116503716 -0.89073812961578
vn -0.14753177762032 -0.64637911319733 -0.74861764907837
vn -0.18543921411037 -0.81246280670166 -0.55273544788361
vn -0.59551155567169 -0.7467474937439 -0.29619947075844
vn -0.62107050418854 -0.77879798412323 -0.08800621330738
vn -0.62247931957245 -0.78056424856186 0.05691201612353
vn -0.62014186382294 -0.77763307094574 0.10349319130182
vn -0.61911827325821 -0.77635049819946 0.11820536106825
vn -0.6160461306572 -0.77249991893768 0.15404906868935
vn -0.61154532432556 -0.76685607433319 0.1947922706604
vn -0.60631442070007 -0.76029586791992 0.23309442400932
vn -0.59802240133286 -0.74989646673203 0.28288614749908
vn -0.57690519094467 -0.72341305017471 0.37928086519241
vn -0.16188356280327 -0.70927602052689 0.68609124422073
vn 0.14303858578205 -0.17936471104622 -0.97332847118378
vn 0.28338640928268 -0.35535541176796 -0.89073830842972
vn 0.41337510943413 -0.51835572719574 -0.74861758947372
vn 0.51958978176117 -0.65154439210892 -0.55273526906967
vn 0.21253602206707 -0.93117916584015 -0.29619896411896
vn 0.22165749967098 -0.97114509344101 -0.08800669759512
vn 0.22216007113457 -0.97334784269333 0.05691083148122
vn 0.22132539749146 -0.96969282627106 0.10349323600531
vn 0.22095942497253 -0.96809309720993 0.11820621788502
vn 0.21986311674118 -0.96329063177109 0.15404996275902
vn 0.21825775504112 -0.95625299215317 0.1947915405035
vn 0.21639049053192 -0.94807291030884 0.23309409618378
vn 0.21342907845974 -0.93510645627975 0.28288507461548
vn 0.20589670538902 -0.90208214521408 0.37928143143654
vn 0.45360517501831 -0.56879276037216 0.68608832359314
vn 0.86053889989853 -0.41441348195076 -0.29619976878166
vn 0.89747303724289 -0.43219998478889 -0.0880071669817
vn 0.89950877428055 -0.43318027257919 0.05691112577915
vn 0.89613109827042 -0.43155318498611 0.10349322110415
vn 0.89465284347534 -0.43084070086479 0.11820544302464
vn 0.89021456241608 -0.42870351672173 0.15404963493347
vn 0.88371074199677 -0.42557144165039 0.19479294121265
vn 0.87615185976028 -0.42193049192429 0.23309363424778
vn 0.86416912078857 -0.41615828871727 0.2828851044178
vn 0.83365082740784 -0.40146088600159 0.37928283214569
# 108 normals

o Capsule
usemtl default
f 18//3 3//2 1//1
f 18//3 19//6 4//5 3//2
f 19//6 20//8 5//7 4//5
f 20//8 21//10 6//9 5//7
f 21//10 22//11 7//11 6//9
f 22//11 23//12 8//12 7//11
f 23//12 24//13 9//13 8//12
f 24//13 25//14 10//14 9//13
f 25//14 26//15 11//15 10//14
f 26//15 27//16 12//16 11//15
f 27//16 28//17 13//17 12//16
f 28//17 29//18 14//18 13//17
f 29//18 30//19 15//19 14//18
f 30//19 31//20 16//20 15//19
f 31//20 32//22 17//21 16//20
f 32//22 2//23 17//21
f 33//24 18//3 1//1
f 33//24 34//25 19//6 18//3
f 34//25 35//26 20//8 19//6
f 35//26 36//27 21//10 20//8
f 36//27 37//28 22//28 21//10
f 37//28 38//29 23//29 22//28
f 38//29 39//30 24//30 23//29
f 39//30 40//31 25//31 24//30
f 40//31 41//32 26//32 25//31
f 41//32 42//33 27//33 26//32
f 42//33 43//34 28//34 27//33
f 43//34 44//35 29//35 28//34
f 44//35 45//36 30//36 29//35
f 45//36 46//37 31//37 30//36
f 46//37 47//38 32//22 31//37
f 47//38 2//23 32//22
f 48//39 33//24 1//1
f 48//39 49//40 34//25 33//24
f 49//40 50//41 35//26 34//25
f 50//41 51//42 36//27 35//26
f 51//42 52//43 37//43 36//27
f 52//43 53//44 38//44 37//43
f 53//44 54//45 39//45 38//44
f 54//45 55//46 40//46 39//45
f 55//46 56//47 41//47 40//46
f 56//47 57//48 42//48 41//47
f 57//48 58//49 43//49 42//48
f 58//49 59//50 44//50 43//49
f 59//50 60//51 45//51 44//50
f 60//51 61//52 46//52 45//51
f 61//52 62//53 47//38 46//52
f 62//53 2//23 47//38
f 63//54 48//39 1//1
f 63//54 64//55 49//40 48//39
f 64//55 65//56 50//41 49//40
f 65//56 66//57 51//42 50//41
f 66//57 67//58 52//58 51//42
f 67//58 68//59 53//59 52//58
f 68//59 69//60 54//60 53//59
f 69//60 70//61 55//61 54//60
f 70//61 71//62 56//62 55//61
f 71//62 72//63 57//63 56//62
f 72//63 73//64 58//64 57//63
f 73//64 74//65 59//65 58//64
f 74//65 75//66 60//66 59//65
f 75//66 76//67 61//67 60//66
f 76//67 77//68 62//53 61//67
f 77//68 2//23 62//53
f 78//69 63//54 1//1
f 78//69 79//70 64//55 63//54
f 79//70 80//71 65//56 64//55
f 80//71 81//72 66//57 65//56
f 81//72 82//73 67//73 66//57
f 82//73 83//74 68//74 67//73
f 83//74 84//75 69//75 68//74
f 84//75 85//76 70//76 69//75
f 85//76 86//77 71//77 70//76
f 86//77 87//78 72//78 71//77
f 87//78 88//79 73//79 72//78
f 88//79 89//80 74//80 73//79
f 89//80 90//81 75//81 74//80
f 90//81 91//82 76//82 75//81
f 91//82 92//83 77//68 76//82
f 92//83 2//23 77//68
f 93//84 78//69 1//1
f 93//84 94//85 79//70 78//69
f 94//85 95//86 80//71 79//70
f 95//86 96//87 81//72 80//71
f 96//87 97//88 82//88 81//72
f 97//88 98//89 83//89 82//88
f 98//89 99//90 84//90 83//89
f 99//90 100//91 85//91 84//90
f 100//91 101//92 86//92 85//91
f 101//92 102//93 87//93 86//92
f 102//93 103//94 88//94 87//93
f 103//94 104//95 89//95 88//94
f 104//95 105//96 90//96 89//95
f 105//96 106//97 91//97 90//96
f 106//97 107//98 92//83 91//97
f 107//98 2//23 92//83
f 3//2 93//84 1//1
f 3//2 4//5 94//85 93//84
f 4//5 5//7 95//86 94//85
f 5//7 6//9 96//87 95//86
f 6//9 7//99 97//99 96//87
f 7//99 8//100 98//100 97//99
f 8//100 9//101 99//101 98//100
f 9//101 10//102 100//102 99//101
f 10//102 11//103 101//103 100//102
f 11//103 12//104 102//104 101//103
f 12//104 13//105 103//105 102//104
f 13//105 14//106 104//106 103//105
f 14//106 15//107 105//107 104//106
f 15//107 16//108 106//108 105//107
f 16//108 17//21 107//98 106//108
f 17//21 2//23 107//98

