# WaveFront *.obj file (generated by CINEMA 4D)

v 4.85154962539673 48.56186676025391 0.96534115076065
v 4.85154962539673 48.56186676025391 25.92480850219727
v 5.62673568725586 48.56186676025391 1.05473911762238
v 6.35020637512207 48.56186676025391 1.31845033168793
v 6.97536039352417 48.56186676025391 1.74325120449066
v 7.46507692337036 48.56186676025391 2.30784034729004
v 7.79472303390503 48.56186676025391 2.98390698432922
v 7.95342445373535 48.56186676025391 3.73755025863647
v 7.94351291656494 48.56186676025391 4.5309796333313
v 6.92452239990234 48.56186676025391 13.44507503509521
v 5.88455057144165 48.56186676025391 22.35917091369629
v 5.76741456985474 48.56186676025391 23.1525993347168
v 5.61771011352539 48.56186676025391 23.9062442779541
v 5.45384740829468 48.56186676025391 24.58230972290039
v 5.29015064239502 48.56186676025391 25.14690017700195
v 5.13490390777588 48.56186676025391 25.57169914245605
v 4.98990345001221 48.56186676025391 25.83541107177734
v 5.33487033843994 49.16793060302734 1.05473911762238
v 5.7859468460083 49.73356246948242 1.31845033168793
v 6.17572402954102 50.22232818603516 1.74325120449066
v 6.48105716705322 50.60520172119141 2.30784034729004
v 6.68658828735352 50.86293029785156 2.98390698432922
v 6.78553676605225 50.98700714111328 3.73755025863647
v 6.77935743331909 50.9792594909668 4.5309796333313
v 6.14402723312378 50.18257904052734 13.44507503509521
v 5.49561548233032 49.36949920654297 22.35917091369629
v 5.42258214950562 49.27791595458984 23.1525993347168
v 5.32924270629883 49.16087341308594 23.9062442779541
v 5.22707605361938 49.03276062011719 24.58230972290039
v 5.12501287460327 48.90477752685547 25.14690017700195
v 5.02821826934814 48.78340148925781 25.57169914245605
v 4.93781185150146 48.6700325012207 25.83541107177734
v 4.67905473709106 49.3176155090332 1.05473911762238
v 4.51806688308716 50.02294540405273 1.31845033168793
v 4.37895727157593 50.63242721557617 1.74325120449066
v 4.26998519897461 51.10986709594727 2.30784034729004
v 4.19663190841675 51.43124771118164 2.98390698432922
v 4.16131734848022 51.58596801757812 3.73755025863647
v 4.16352319717407 51.5763053894043 4.5309796333313
v 4.39026975631714 50.58286285400391 13.44507503509521
v 4.62168502807617 49.56896591186523 22.35917091369629
v 4.64775037765503 49.45476531982422 23.1525993347168
v 4.68106269836426 49.30881500244141 23.9062442779541
v 4.71752595901489 49.14906311035156 24.58230972290039
v 4.75395154953003 48.98946762084961 25.14690017700195
v 4.78849744796753 48.83811569213867 25.57169914245605
v 4.8207631111145 48.69675064086914 25.83541107177734
v 4.15313100814819 48.8982048034668 1.05473911762238
v 3.5013062953949 49.21210861206055 1.31845033168793
v 2.93806195259094 49.48335266113281 1.74325120449066
v 2.49684286117554 49.69583129882812 2.30784034729004
v 2.19984197616577 49.83885955810547 2.98390698432922
v 2.05685687065125 49.90771865844727 3.73755025863647
v 2.06578683853149 49.90341567993164 4.5309796333313
v 2.98386549949646 49.4612922668457 13.44507503509521
v 3.92084765434265 49.01006698608398 22.35917091369629
v 4.02638387680054 48.95924377441406 23.1525993347168
v 4.16126298904419 48.89429092407227 23.9062442779541
v 4.30889797210693 48.82319259643555 24.58230972290039
v 4.45638370513916 48.75216674804688 25.14690017700195
v 4.59625625610352 48.68480682373047 25.57169914245605
v 4.72689723968506 48.62189483642578 25.83541107177734
v 4.15313100814819 48.22552490234375 1.05473911762238
v 3.5013062953949 47.91162109375 1.31845033168793
v 2.93806195259094 47.64037704467773 1.74325120449066
v 2.49684286117554 47.42789840698242 2.30784034729004
v 2.19984197616577 47.28487014770508 2.98390698432922
v 2.05685687065125 47.21601104736328 3.73755025863647
v 2.06578683853149 47.22031402587891 4.5309796333313
v 2.98386549949646 47.66243743896484 13.44507503509521
v 3.92084765434265 48.11366271972656 22.35917091369629
v 4.02638387680054 48.16448593139648 23.1525993347168
v 4.16126298904419 48.22943878173828 23.9062442779541
v 4.30889797210693 48.300537109375 24.58230972290039
v 4.45638370513916 48.37156295776367 25.14690017700195
v 4.59625625610352 48.43892288208008 25.57169914245605
v 4.72689723968506 48.50183486938477 25.83541107177734
v 4.67905473709106 47.80611419677734 1.05473911762238
v 4.51806688308716 47.10078430175781 1.31845033168793
v 4.37895727157593 46.49130249023438 1.74325120449066
v 4.26998519897461 46.01386260986328 2.30784034729004
v 4.19663190841675 45.69248199462891 2.98390698432922
v 4.16131734848022 45.53776168823242 3.73755025863647
v 4.16352319717407 45.54742431640625 4.5309796333313
v 4.39026975631714 46.54086685180664 13.44507503509521
v 4.62168502807617 47.55476379394531 22.35917091369629
v 4.64775037765503 47.66896438598633 23.1525993347168
v 4.68106269836426 47.81491470336914 23.9062442779541
v 4.71752595901489 47.97466659545898 24.58230972290039
v 4.75395154953003 48.13426208496094 25.14690017700195
v 4.78849744796753 48.28561401367188 25.57169914245605
v 4.8207631111145 48.42697906494141 25.83541107177734
v 5.33487033843994 47.9557991027832 1.05473911762238
v 5.7859468460083 47.39016723632812 1.31845033168793
v 6.17572402954102 46.90140151977539 1.74325120449066
v 6.48105716705322 46.51852798461914 2.30784034729004
v 6.68658828735352 46.26079940795898 2.98390698432922
v 6.78553676605225 46.13672256469727 3.73755025863647
v 6.77935743331909 46.14447021484375 4.5309796333313
v 6.14402723312378 46.9411506652832 13.44507503509521
v 5.49561548233032 47.75423049926758 22.35917091369629
v 5.42258214950562 47.8458137512207 23.1525993347168
v 5.32924270629883 47.96285629272461 23.9062442779541
v 5.22707605361938 48.09096908569336 24.58230972290039
v 5.12501287460327 48.21895217895508 25.14690017700195
v 5.02821826934814 48.34032821655273 25.57169914245605
v 4.93781185150146 48.45369720458984 25.83541107177734
# 107 vertices

vn -0.000000071358 0.00000020388001 -1
vn 0.22941617667675 0.00000025414772 -0.97332841157913
vn 0.14303846657276 0.17936506867409 -0.97332841157913
vn 0 0 0
vn 0.45451694726944 0.00000032309572 -0.89073807001114
vn 0.28338629007339 0.35535567998886 -0.89073818922043
vn 0.66300237178802 0.000000323422 -0.7486172914505
vn 0.41337490081787 0.51835596561432 -0.74861758947372
vn 0.83335679769516 0.00000030745898 -0.55273538827896
vn 0.51958954334259 0.65154457092285 -0.55273538827896
vn 0.86053866147995 0.41441404819489 -0.29619970917702
vn 0.89747279882431 0.43220058083534 -0.0880071669817
vn 0.89950841665268 0.43318089842796 0.05691114068031
vn 0.8961306810379 0.43155416846275 0.10349324345589
vn 0.8946521282196 0.43084225058556 0.11820542812347
vn 0.8902136683464 0.42870539426804 0.15404959022999
vn 0.88370966911316 0.42557367682457 0.19479297101498
vn 0.87615048885345 0.4219334423542 0.23309329152107
vn 0.86416709423065 0.41616228222847 0.28288552165031
vn 0.83364766836166 0.40146747231483 0.37928283214569
vn 0.72751849889755 0.00000464582672 0.68608802556992
vn 0.45360353589058 0.56879860162735 0.68608456850052
vn 0.00000399225655 0.00000471526391 1
vn -0.05104999989271 0.22366447746754 -0.97332835197449
vn -0.1011396124959 0.4431212246418 -0.89073812961578
vn -0.14753191173077 0.64637917280197 -0.74861758947372
vn -0.18543925881386 0.81246280670166 -0.55273550748825
vn 0.21253603696823 0.93117916584015 -0.29619887471199
vn 0.22165754437447 0.97114509344101 -0.08800673484802
vn 0.22216008603573 0.97334784269333 0.05691085755825
vn 0.22132536768913 0.9696928858757 0.10349318385124
vn 0.2209594398737 0.96809309720993 0.1182061880827
vn 0.2198631465435 0.96329063177109 0.15404996275902
vn 0.21825775504112 0.95625299215317 0.19479170441628
vn 0.21639055013657 0.94807308912277 0.23309347033501
vn 0.21342910826206 0.93510639667511 0.28288513422012
vn 0.20589649677277 0.90208095312119 0.37928426265717
vn -0.16188429296017 0.70927953720093 0.68608742952347
vn -0.20669674873352 0.09953996539116 -0.97332841157913
vn -0.40950539708138 0.19720757007599 -0.89073818922043
vn -0.5973442196846 0.28766590356827 -0.74861752986908
vn -0.75082862377167 0.36157989501953 -0.55273532867432
vn -0.59551155567169 0.7467474937439 -0.29619950056076
vn -0.62107050418854 0.77879798412323 -0.08800631761551
vn -0.62247931957245 0.78056424856186 0.05691201239824
vn -0.62014186382294 0.77763307094574 0.10349320620298
vn -0.61911827325821 0.77635043859482 0.11820542812347
vn -0.6160461306572 0.77249985933304 0.15404918789864
vn -0.61154538393021 0.76685613393784 0.19479215145111
vn -0.60631453990936 0.76029592752457 0.23309406638145
vn -0.59802240133286 0.74989646673203 0.28288605809212
vn -0.57690513134003 0.72341287136078 0.37928128242493
vn -0.65547347068787 0.31565868854523 0.68608605861664
vn -0.20669673383236 -0.09953991323709 -0.97332847118378
vn -0.40950536727905 -0.19720755517483 -0.89073818922043
vn -0.5973442196846 -0.28766584396362 -0.74861758947372
vn -0.75082862377167 -0.36157980561256 -0.55273544788361
vn -0.95512598752975 0 -0.29619979858398
vn -0.99611985683441 0 -0.08800712972879
vn -0.99837923049927 0 0.05691140890121
vn -0.99463015794754 0 0.10349323600531
vn -0.99298918247223 0 0.11820527166128
vn -0.98806309700012 0 0.1540495455265
vn -0.98084437847137 0 0.1947930008173
vn -0.97245436906815 0 0.23309327661991
vn -0.95915359258652 0 0.28288587927818
vn -0.92528080940247 0 0.37928277254105
vn -0.65547227859497 -0.31565698981285 0.68608802556992
vn -0.05105001106858 -0.2236642241478 -0.97332841157913
vn -0.10113962739706 -0.4431212246418 -0.89073807001114
vn -0.1475318223238 -0.64637923240662 -0.74861752986908
vn -0.18543919920921 -0.81246274709702 -0.55273550748825
vn -0.59551155567169 -0.7467474937439 -0.29619941115379
vn -0.62107050418854 -0.77879798412323 -0.08800625056028
vn -0.62247931957245 -0.78056424856186 0.05691202357411
vn -0.62014186382294 -0.77763307094574 0.10349319130182
vn -0.61911827325821 -0.77635049819946 0.11820535361767
vn -0.6160461306572 -0.77249991893768 0.15404906868935
vn -0.61154532432556 -0.76685607433319 0.1947922706604
vn -0.60631448030472 -0.76029592752457 0.23309405148029
vn -0.59802228212357 -0.74989640712738 0.28288638591766
vn -0.57690507173538 -0.72341281175613 0.37928149104118
vn -0.16188356280327 -0.70927602052689 0.68609124422073
vn 0.14303851127625 -0.17936462163925 -0.97332847118378
vn 0.28338649868965 -0.3553554713726 -0.89073824882507
vn 0.41337510943413 -0.51835584640503 -0.74861758947372
vn 0.51958972215652 -0.65154439210892 -0.55273538827896
vn 0.21253603696823 -0.93117916584015 -0.29619893431664
vn 0.22165751457214 -0.97114509344101 -0.08800672739744
vn 0.22216005623341 -0.97334784269333 0.0569108389318
vn 0.22132538259029 -0.96969282627106 0.10349323600531
vn 0.22095942497253 -0.96809309720993 0.11820621043444
vn 0.21986311674118 -0.96329063177109 0.15404996275902
vn 0.21825775504112 -0.95625299215317 0.1947915405035
vn 0.21639052033424 -0.94807302951813 0.23309370875359
vn 0.21342907845974 -0.93510639667511 0.28288531303406
vn 0.20589664578438 -0.90208184719086 0.37928205728531
vn 0.45360517501831 -0.56879276037216 0.68608832359314
vn 0.86053889989853 -0.41441351175308 -0.29619973897934
vn 0.89747303724289 -0.43219998478889 -0.0880072042346
vn 0.89950877428055 -0.43318024277687 0.05691112950444
vn 0.89613115787506 -0.43155318498611 0.10349322110415
vn 0.89465284347534 -0.43084070086479 0.11820543557405
vn 0.89021456241608 -0.42870351672173 0.15404963493347
vn 0.88371074199677 -0.42557144165039 0.19479294121265
vn 0.87615191936493 -0.42193055152893 0.23309324681759
vn 0.86416906118393 -0.41615825891495 0.28288531303406
vn 0.83365058898926 -0.40146082639694 0.37928348779678
# 108 normals

o Capsule.1
usemtl default
f 18//3 3//2 1//1
f 18//3 19//6 4//5 3//2
f 19//6 20//8 5//7 4//5
f 20//8 21//10 6//9 5//7
f 21//10 22//11 7//11 6//9
f 22//11 23//12 8//12 7//11
f 23//12 24//13 9//13 8//12
f 24//13 25//14 10//14 9//13
f 25//14 26//15 11//15 10//14
f 26//15 27//16 12//16 11//15
f 27//16 28//17 13//17 12//16
f 28//17 29//18 14//18 13//17
f 29//18 30//19 15//19 14//18
f 30//19 31//20 16//20 15//19
f 31//20 32//22 17//21 16//20
f 32//22 2//23 17//21
f 33//24 18//3 1//1
f 33//24 34//25 19//6 18//3
f 34//25 35//26 20//8 19//6
f 35//26 36//27 21//10 20//8
f 36//27 37//28 22//28 21//10
f 37//28 38//29 23//29 22//28
f 38//29 39//30 24//30 23//29
f 39//30 40//31 25//31 24//30
f 40//31 41//32 26//32 25//31
f 41//32 42//33 27//33 26//32
f 42//33 43//34 28//34 27//33
f 43//34 44//35 29//35 28//34
f 44//35 45//36 30//36 29//35
f 45//36 46//37 31//37 30//36
f 46//37 47//38 32//22 31//37
f 47//38 2//23 32//22
f 48//39 33//24 1//1
f 48//39 49//40 34//25 33//24
f 49//40 50//41 35//26 34//25
f 50//41 51//42 36//27 35//26
f 51//42 52//43 37//43 36//27
f 52//43 53//44 38//44 37//43
f 53//44 54//45 39//45 38//44
f 54//45 55//46 40//46 39//45
f 55//46 56//47 41//47 40//46
f 56//47 57//48 42//48 41//47
f 57//48 58//49 43//49 42//48
f 58//49 59//50 44//50 43//49
f 59//50 60//51 45//51 44//50
f 60//51 61//52 46//52 45//51
f 61//52 62//53 47//38 46//52
f 62//53 2//23 47//38
f 63//54 48//39 1//1
f 63//54 64//55 49//40 48//39
f 64//55 65//56 50//41 49//40
f 65//56 66//57 51//42 50//41
f 66//57 67//58 52//58 51//42
f 67//58 68//59 53//59 52//58
f 68//59 69//60 54//60 53//59
f 69//60 70//61 55//61 54//60
f 70//61 71//62 56//62 55//61
f 71//62 72//63 57//63 56//62
f 72//63 73//64 58//64 57//63
f 73//64 74//65 59//65 58//64
f 74//65 75//66 60//66 59//65
f 75//66 76//67 61//67 60//66
f 76//67 77//68 62//53 61//67
f 77//68 2//23 62//53
f 78//69 63//54 1//1
f 78//69 79//70 64//55 63//54
f 79//70 80//71 65//56 64//55
f 80//71 81//72 66//57 65//56
f 81//72 82//73 67//73 66//57
f 82//73 83//74 68//74 67//73
f 83//74 84//75 69//75 68//74
f 84//75 85//76 70//76 69//75
f 85//76 86//77 71//77 70//76
f 86//77 87//78 72//78 71//77
f 87//78 88//79 73//79 72//78
f 88//79 89//80 74//80 73//79
f 89//80 90//81 75//81 74//80
f 90//81 91//82 76//82 75//81
f 91//82 92//83 77//68 76//82
f 92//83 2//23 77//68
f 93//84 78//69 1//1
f 93//84 94//85 79//70 78//69
f 94//85 95//86 80//71 79//70
f 95//86 96//87 81//72 80//71
f 96//87 97//88 82//88 81//72
f 97//88 98//89 83//89 82//88
f 98//89 99//90 84//90 83//89
f 99//90 100//91 85//91 84//90
f 100//91 101//92 86//92 85//91
f 101//92 102//93 87//93 86//92
f 102//93 103//94 88//94 87//93
f 103//94 104//95 89//95 88//94
f 104//95 105//96 90//96 89//95
f 105//96 106//97 91//97 90//96
f 106//97 107//98 92//83 91//97
f 107//98 2//23 92//83
f 3//2 93//84 1//1
f 3//2 4//5 94//85 93//84
f 4//5 5//7 95//86 94//85
f 5//7 6//9 96//87 95//86
f 6//9 7//99 97//99 96//87
f 7//99 8//100 98//100 97//99
f 8//100 9//101 99//101 98//100
f 9//101 10//102 100//102 99//101
f 10//102 11//103 101//103 100//102
f 11//103 12//104 102//104 101//103
f 12//104 13//105 103//105 102//104
f 13//105 14//106 104//106 103//105
f 14//106 15//107 105//107 104//106
f 15//107 16//108 106//108 105//107
f 16//108 17//21 107//98 106//108
f 17//21 2//23 107//98

